<svg width="64" height="64" viewBox="0 0 64 64" fill="none" xmlns="http://www.w3.org/2000/svg">
  <rect width="64" height="64" rx="12" fill="#050505"/>
  <path fill="#F5D000" d="M32 48.37L25.53 50.53L23.01 48.84L25.76 47.93L24.91 45.4L20.2 46.97L18.67 45.95V38.66C18.67 38.16 18.38 37.7 17.93 37.47L13.33 35.18V28.82L17.33 26.82L21.33 28.82V33.33C21.33 33.84 21.62 34.3 22.07 34.53L27.4 37.19L28.6 34.81L24 32.51V28.82L28.6 26.53C29.05 26.3 29.33 25.84 29.33 25.33V21.33H26.67V24.51L22.67 26.51L18.67 24.51V18.05L21.33 16.27V21.33H24V14.49L25.53 13.47L32 15.63V48.37ZM46.67 45.33C47.4 45.33 48 45.93 48 46.67C48 47.4 47.4 48 46.67 48C45.93 48 45.33 47.4 45.33 46.67C45.33 45.93 45.93 45.33 46.67 45.33ZM44 16C44.73 16 45.33 16.6 45.33 17.33C45.33 18.07 44.73 18.67 44 18.67C43.27 18.67 42.67 18.07 42.67 17.33C42.67 16.6 43.27 16 44 16ZM49.33 32C50.07 32 50.67 32.6 50.67 33.33C50.67 34.07 50.07 34.67 49.33 34.67C48.6 34.67 48 34.07 48 33.33C48 32.6 48.6 32 49.33 32ZM45.58 34.67C46.13 36.22 47.6 37.33 49.33 37.33C51.54 37.33 53.33 35.54 53.33 33.33C53.33 31.13 51.54 29.33 49.33 29.33C47.6 29.33 46.13 30.45 45.58 32H34.67V26.67H44C44.74 26.67 45.33 26.07 45.33 25.33V21.09C46.88 20.53 48 19.07 48 17.33C48 15.13 46.21 13.33 44 13.33C41.79 13.33 40 15.13 40 17.33C40 19.07 41.12 20.53 42.67 21.09V24H34.67V14.67C34.67 14.09 34.3 13.58 33.75 13.4L25.75 10.73C25.36 10.6 24.94 10.66 24.59 10.89L16.59 16.22C16.22 16.47 16 16.89 16 17.33V24.51L11.4 26.81C10.95 27.03 10.67 27.49 10.67 28V36C10.67 36.51 10.95 36.97 11.4 37.19L16 39.49V46.67C16 47.11 16.22 47.53 16.59 47.78L24.59 53.11C24.82 53.26 25.07 53.33 25.33 53.33C25.47 53.33 25.62 53.31 25.75 53.27L33.75 50.6C34.3 50.42 34.67 49.91 34.67 49.33V42.67H40.78L43.06 44.94L43.09 44.91C42.83 45.44 42.67 46.03 42.67 46.67C42.67 48.87 44.46 50.67 46.67 50.67C48.87 50.67 50.67 48.87 50.67 46.67C50.67 44.46 48.87 42.67 46.67 42.67C46.03 42.67 45.44 42.83 44.91 43.09L44.94 43.06L42.28 40.39C42.03 40.14 41.69 40 41.33 40H34.67V34.67H45.58Z"/>
</svg>
